<?xml version="1.0" encoding="utf-8"?>
<svg viewBox="0 0 24 24" fill="none" stroke-width="2" stroke="currentColor" xmlns="http://www.w3.org/2000/svg">
  <path stroke-linecap="round" stroke-linejoin="round" d="M8 7V3m8 4V3m-9 810M5 21h14a2 2 0 002-2V7a2 2 0 00-2-2H5a2 2 0 00-2 2v12a2 2 0 002 2z" style="stroke: currentcolor;"/>
  <path d="M 13.556 14.268 Q 13.137 14.763 12.62 15.013 Q 12.102 15.264 11.474 15.264 Q 10.877 15.264 10.36 15.032 Q 9.843 14.801 9.465 14.385 Q 9.087 13.969 8.884 13.414 Q 8.681 12.858 8.681 12.249 Q 8.681 11.595 8.909 11.008 Q 9.138 10.421 9.563 9.989 Q 9.989 9.558 10.576 9.316 Q 11.163 9.075 11.874 9.075 Q 12.693 9.075 13.334 9.374 Q 13.975 9.672 14.413 10.24 Q 14.851 10.808 15.086 11.671 Q 15.321 12.535 15.321 13.626 Q 15.321 14.845 15.073 15.775 Q 14.825 16.705 14.353 17.337 Q 13.88 17.968 13.22 18.276 Q 12.559 18.584 11.721 18.584 Q 10.896 18.584 10.287 18.27 Q 9.678 17.956 9.36 17.489 Q 9.043 17.022 9.043 16.591 Q 9.043 16.324 9.24 16.115 Q 9.436 15.905 9.741 15.905 Q 10.02 15.905 10.242 16.061 Q 10.465 16.216 10.579 16.527 Q 10.719 16.908 11.042 17.14 Q 11.366 17.372 11.772 17.372 Q 12.134 17.372 12.458 17.188 Q 12.782 17.003 13.01 16.667 Q 13.467 15.988 13.556 14.268 Z M 13.41 12.325 Q 13.41 11.894 13.293 11.529 Q 13.175 11.164 12.962 10.897 Q 12.75 10.63 12.455 10.478 Q 12.159 10.326 11.81 10.326 Q 11.207 10.326 10.788 10.843 Q 10.369 11.36 10.369 12.211 Q 10.369 13.055 10.788 13.557 Q 11.207 14.058 11.848 14.058 Q 12.242 14.058 12.601 13.852 Q 12.959 13.646 13.185 13.252 Q 13.41 12.858 13.41 12.325 Z" style="fill: currentcolor; paint-order: stroke; stroke: none; stroke-width: 1px; isolation: isolate;"/>
</svg>