<?xml version="1.0" encoding="utf-8"?>
<svg viewBox="0 0 24 24" fill="none" stroke-width="2" stroke="currentColor" xmlns="http://www.w3.org/2000/svg">
  <path stroke-linecap="round" stroke-linejoin="round" d="M8 7V3m8 4V3m-9 810M5 21h14a2 2 0 002-2V7a2 2 0 00-2-2H5a2 2 0 00-2 2v12a2 2 0 002 2z" style="stroke: currentcolor;"/>
  <path d="M 8.079 17.568 L 8.079 11.792 Q 6.467 13.03 5.908 13.03 Q 5.641 13.03 5.435 12.817 Q 5.229 12.605 5.229 12.325 Q 5.229 12.001 5.432 11.849 Q 5.635 11.697 6.149 11.456 Q 6.917 11.094 7.378 10.694 Q 7.838 10.294 8.193 9.799 Q 8.549 9.304 8.657 9.189 Q 8.764 9.075 9.063 9.075 Q 9.399 9.075 9.602 9.335 Q 9.806 9.596 9.806 10.053 L 9.806 17.321 Q 9.806 18.597 8.936 18.597 Q 8.549 18.597 8.314 18.336 Q 8.079 18.076 8.079 17.568 Z M 12.505 11.494 Q 12.505 10.859 12.851 10.297 Q 13.197 9.735 13.866 9.399 Q 14.536 9.063 15.431 9.063 Q 16.186 9.063 16.758 9.259 Q 17.329 9.456 17.71 9.802 Q 18.091 10.148 18.275 10.583 Q 18.459 11.018 18.459 11.506 Q 18.459 12.128 18.138 12.617 Q 17.818 13.106 17.183 13.417 Q 17.722 13.626 18.078 13.966 Q 18.433 14.306 18.614 14.753 Q 18.795 15.201 18.795 15.747 Q 18.795 16.546 18.408 17.197 Q 18.021 17.848 17.272 18.216 Q 16.523 18.584 15.507 18.584 Q 14.453 18.584 13.704 18.216 Q 12.955 17.848 12.574 17.203 Q 12.194 16.559 12.194 15.759 Q 12.194 14.052 13.806 13.417 Q 12.505 12.808 12.505 11.494 Z M 17.056 15.696 Q 17.056 15.201 16.853 14.833 Q 16.65 14.464 16.281 14.268 Q 15.913 14.071 15.456 14.071 Q 14.809 14.071 14.371 14.502 Q 13.933 14.934 13.933 15.709 Q 13.933 16.204 14.139 16.581 Q 14.345 16.959 14.701 17.165 Q 15.056 17.372 15.494 17.372 Q 15.939 17.372 16.294 17.162 Q 16.65 16.953 16.853 16.572 Q 17.056 16.191 17.056 15.696 Z M 15.469 10.275 Q 14.872 10.275 14.507 10.646 Q 14.142 11.018 14.142 11.602 Q 14.142 12.141 14.517 12.5 Q 14.891 12.858 15.482 12.858 Q 15.78 12.858 16.024 12.763 Q 16.269 12.668 16.443 12.5 Q 16.618 12.332 16.713 12.1 Q 16.808 11.868 16.808 11.589 Q 16.808 11.214 16.64 10.916 Q 16.472 10.618 16.167 10.446 Q 15.863 10.275 15.469 10.275 Z" style="fill: currentcolor; paint-order: stroke; stroke: none; stroke-width: 1px; isolation: isolate;"/>
</svg>