<?xml version="1.0" encoding="utf-8"?>
<svg viewBox="0 0 24 24" fill="none" stroke-width="2" stroke="currentColor" xmlns="http://www.w3.org/2000/svg">
  <path stroke-linecap="round" stroke-linejoin="round" d="M8 7V3m8 4V3m-9 810M5 21h14a2 2 0 002-2V7a2 2 0 00-2-2H5a2 2 0 00-2 2v12a2 2 0 002 2z" style="stroke: currentcolor;"/>
  <path d="M 7.311 16.94 L 10.624 16.94 Q 11.119 16.94 11.38 17.143 Q 11.64 17.346 11.64 17.695 Q 11.64 18.006 11.434 18.222 Q 11.227 18.438 10.808 18.438 L 6.137 18.438 Q 5.66 18.438 5.394 18.175 Q 5.127 17.911 5.127 17.556 Q 5.127 17.327 5.299 16.949 Q 5.47 16.572 5.673 16.356 Q 6.517 15.48 7.197 14.855 Q 7.876 14.23 8.168 14.033 Q 8.688 13.665 9.034 13.293 Q 9.38 12.922 9.561 12.532 Q 9.742 12.141 9.742 11.767 Q 9.742 11.36 9.548 11.04 Q 9.355 10.719 9.022 10.542 Q 8.688 10.364 8.295 10.364 Q 7.463 10.364 6.987 11.094 Q 6.924 11.189 6.775 11.614 Q 6.625 12.04 6.438 12.268 Q 6.251 12.497 5.889 12.497 Q 5.572 12.497 5.362 12.287 Q 5.153 12.078 5.153 11.716 Q 5.153 11.278 5.349 10.802 Q 5.546 10.326 5.937 9.938 Q 6.327 9.551 6.927 9.313 Q 7.527 9.075 8.333 9.075 Q 9.304 9.075 9.99 9.38 Q 10.434 9.583 10.77 9.938 Q 11.107 10.294 11.294 10.761 Q 11.481 11.227 11.481 11.729 Q 11.481 12.516 11.091 13.16 Q 10.701 13.804 10.294 14.169 Q 9.888 14.534 8.933 15.315 Q 7.977 16.096 7.622 16.527 Q 7.47 16.699 7.311 16.94 Z M 15.196 12.82 Q 15.78 12.82 16.202 12.478 Q 16.624 12.135 16.624 11.494 Q 16.624 11.005 16.288 10.653 Q 15.951 10.3 15.38 10.3 Q 14.993 10.3 14.742 10.408 Q 14.491 10.516 14.345 10.694 Q 14.199 10.872 14.069 11.151 Q 13.939 11.43 13.831 11.678 Q 13.768 11.811 13.603 11.887 Q 13.438 11.963 13.222 11.963 Q 12.968 11.963 12.755 11.757 Q 12.543 11.551 12.543 11.208 Q 12.543 10.878 12.743 10.513 Q 12.943 10.148 13.327 9.818 Q 13.711 9.488 14.282 9.288 Q 14.853 9.088 15.558 9.088 Q 16.174 9.088 16.681 9.256 Q 17.189 9.424 17.564 9.742 Q 17.938 10.059 18.129 10.478 Q 18.319 10.897 18.319 11.379 Q 18.319 12.014 18.043 12.468 Q 17.767 12.922 17.253 13.354 Q 17.748 13.62 18.087 13.963 Q 18.427 14.306 18.598 14.721 Q 18.77 15.137 18.77 15.62 Q 18.77 16.197 18.538 16.737 Q 18.306 17.276 17.856 17.698 Q 17.405 18.121 16.786 18.359 Q 16.167 18.597 15.418 18.597 Q 14.656 18.597 14.053 18.324 Q 13.45 18.051 13.06 17.641 Q 12.67 17.232 12.47 16.794 Q 12.27 16.356 12.27 16.07 Q 12.27 15.702 12.508 15.477 Q 12.746 15.251 13.101 15.251 Q 13.279 15.251 13.444 15.356 Q 13.609 15.461 13.66 15.607 Q 13.99 16.489 14.368 16.918 Q 14.745 17.346 15.431 17.346 Q 15.824 17.346 16.189 17.153 Q 16.554 16.959 16.792 16.578 Q 17.031 16.197 17.031 15.696 Q 17.031 14.953 16.624 14.531 Q 16.218 14.109 15.494 14.109 Q 15.367 14.109 15.101 14.134 Q 14.834 14.16 14.758 14.16 Q 14.409 14.16 14.218 13.985 Q 14.028 13.811 14.028 13.5 Q 14.028 13.195 14.257 13.008 Q 14.485 12.82 14.936 12.82 Z" style="fill: currentcolor; paint-order: stroke; stroke: none; stroke-width: 1px; isolation: isolate;"/>
</svg>