<?xml version="1.0" encoding="utf-8"?>
<svg viewBox="0 0 24 24" fill="none" stroke-width="2" stroke="currentColor" xmlns="http://www.w3.org/2000/svg">
  <path stroke-linecap="round" stroke-linejoin="round" d="M8 7V3m8 4V3m-9 810M5 21h14a2 2 0 002-2V7a2 2 0 00-2-2H5a2 2 0 00-2 2v12a2 2 0 002 2z" style="stroke: currentcolor;"/>
  <path d="M 12.813 17.632 L 12.813 16.451 L 9.627 16.451 Q 9.024 16.451 8.722 16.178 Q 8.421 15.905 8.421 15.436 Q 8.421 15.315 8.465 15.191 Q 8.51 15.067 8.598 14.931 Q 8.687 14.794 8.783 14.667 Q 8.878 14.541 9.017 14.356 L 12.382 9.856 Q 12.712 9.412 12.924 9.212 Q 13.137 9.012 13.435 9.012 Q 14.4 9.012 14.4 10.116 L 14.4 15.029 L 14.673 15.029 Q 15.162 15.029 15.457 15.163 Q 15.752 15.296 15.752 15.747 Q 15.752 16.115 15.511 16.283 Q 15.27 16.451 14.787 16.451 L 14.4 16.451 L 14.4 17.632 Q 14.4 18.121 14.184 18.359 Q 13.969 18.597 13.607 18.597 Q 13.251 18.597 13.032 18.352 Q 12.813 18.108 12.813 17.632 Z M 10.084 15.029 L 12.813 15.029 L 12.813 11.341 Z" style="fill: currentcolor; paint-order: stroke; stroke: none; stroke-width: 1px; isolation: isolate;"/>
</svg>