<?xml version="1.0" encoding="utf-8"?>
<svg viewBox="0 0 24 24" fill="none" stroke-width="2" stroke="currentColor" xmlns="http://www.w3.org/2000/svg">
  <path stroke-linecap="round" stroke-linejoin="round" d="M8 7V3m8 4V3m-9 810M5 21h14a2 2 0 002-2V7a2 2 0 00-2-2H5a2 2 0 00-2 2v12a2 2 0 002 2z" style="stroke: currentcolor;"/>
  <path d="M 8.079 17.568 L 8.079 11.792 Q 6.467 13.03 5.908 13.03 Q 5.641 13.03 5.435 12.817 Q 5.229 12.605 5.229 12.325 Q 5.229 12.001 5.432 11.849 Q 5.635 11.697 6.149 11.456 Q 6.917 11.094 7.378 10.694 Q 7.838 10.294 8.193 9.799 Q 8.549 9.304 8.657 9.189 Q 8.764 9.075 9.063 9.075 Q 9.399 9.075 9.602 9.335 Q 9.806 9.596 9.806 10.053 L 9.806 17.321 Q 9.806 18.597 8.936 18.597 Q 8.549 18.597 8.314 18.336 Q 8.079 18.076 8.079 17.568 Z M 16.186 17.632 L 16.186 16.451 L 13 16.451 Q 12.397 16.451 12.095 16.178 Q 11.794 15.905 11.794 15.436 Q 11.794 15.315 11.838 15.191 Q 11.883 15.067 11.971 14.931 Q 12.06 14.794 12.156 14.667 Q 12.251 14.541 12.39 14.356 L 15.755 9.856 Q 16.085 9.412 16.297 9.212 Q 16.51 9.012 16.808 9.012 Q 17.773 9.012 17.773 10.116 L 17.773 15.029 L 18.046 15.029 Q 18.535 15.029 18.83 15.163 Q 19.125 15.296 19.125 15.747 Q 19.125 16.115 18.884 16.283 Q 18.643 16.451 18.16 16.451 L 17.773 16.451 L 17.773 17.632 Q 17.773 18.121 17.557 18.359 Q 17.342 18.597 16.98 18.597 Q 16.624 18.597 16.405 18.352 Q 16.186 18.108 16.186 17.632 Z M 13.457 15.029 L 16.186 15.029 L 16.186 11.341 Z" style="fill: currentcolor; paint-order: stroke; stroke: none; stroke-width: 1px; isolation: isolate;"/>
</svg>