<?xml version="1.0" encoding="utf-8"?>
<svg viewBox="0 0 24 24" fill="none" stroke-width="2" stroke="currentColor" xmlns="http://www.w3.org/2000/svg">
  <path stroke-linecap="round" stroke-linejoin="round" d="M8 7V3m8 4V3m-9 810M5 21h14a2 2 0 002-2V7a2 2 0 00-2-2H5a2 2 0 00-2 2v12a2 2 0 002 2z" style="stroke: currentcolor;"/>
  <path d="M 9.132 11.494 Q 9.132 10.859 9.478 10.297 Q 9.824 9.735 10.493 9.399 Q 11.163 9.063 12.058 9.063 Q 12.813 9.063 13.385 9.259 Q 13.956 9.456 14.337 9.802 Q 14.718 10.148 14.902 10.583 Q 15.086 11.018 15.086 11.506 Q 15.086 12.128 14.765 12.617 Q 14.445 13.106 13.81 13.417 Q 14.349 13.626 14.705 13.966 Q 15.06 14.306 15.241 14.753 Q 15.422 15.201 15.422 15.747 Q 15.422 16.546 15.035 17.197 Q 14.648 17.848 13.899 18.216 Q 13.15 18.584 12.134 18.584 Q 11.08 18.584 10.331 18.216 Q 9.582 17.848 9.201 17.203 Q 8.821 16.559 8.821 15.759 Q 8.821 14.052 10.433 13.417 Q 9.132 12.808 9.132 11.494 Z M 13.683 15.696 Q 13.683 15.201 13.48 14.833 Q 13.277 14.464 12.908 14.268 Q 12.54 14.071 12.083 14.071 Q 11.436 14.071 10.998 14.502 Q 10.56 14.934 10.56 15.709 Q 10.56 16.204 10.766 16.581 Q 10.972 16.959 11.328 17.165 Q 11.683 17.372 12.121 17.372 Q 12.566 17.372 12.921 17.162 Q 13.277 16.953 13.48 16.572 Q 13.683 16.191 13.683 15.696 Z M 12.096 10.275 Q 11.499 10.275 11.134 10.646 Q 10.769 11.018 10.769 11.602 Q 10.769 12.141 11.144 12.5 Q 11.518 12.858 12.109 12.858 Q 12.407 12.858 12.651 12.763 Q 12.896 12.668 13.07 12.5 Q 13.245 12.332 13.34 12.1 Q 13.435 11.868 13.435 11.589 Q 13.435 11.214 13.267 10.916 Q 13.099 10.618 12.794 10.446 Q 12.49 10.275 12.096 10.275 Z" style="fill: currentcolor; paint-order: stroke; stroke: none; stroke-width: 1px; isolation: isolate;"/>
</svg>