<?xml version="1.0" encoding="utf-8"?>
<svg viewBox="0 0 24 24" fill="none" stroke-width="2" stroke="currentColor" xmlns="http://www.w3.org/2000/svg">
  <path stroke-linecap="round" stroke-linejoin="round" d="M8 7V3m8 4V3m-9 810M5 21h14a2 2 0 002-2V7a2 2 0 00-2-2H5a2 2 0 00-2 2v12a2 2 0 002 2z" style="stroke: currentcolor;"/>
  <path d="M 10.617 13.404 Q 11.049 12.89 11.556 12.643 Q 12.064 12.395 12.693 12.395 Q 13.296 12.395 13.807 12.62 Q 14.318 12.846 14.702 13.261 Q 15.086 13.677 15.295 14.242 Q 15.505 14.807 15.505 15.423 Q 15.505 16.318 15.095 17.048 Q 14.686 17.778 13.953 18.187 Q 13.22 18.597 12.293 18.597 Q 11.226 18.597 10.452 18.076 Q 9.678 17.556 9.268 16.537 Q 8.859 15.518 8.859 14.045 Q 8.859 12.846 9.106 11.9 Q 9.354 10.954 9.817 10.332 Q 10.281 9.71 10.941 9.393 Q 11.601 9.075 12.445 9.075 Q 13.258 9.075 13.877 9.393 Q 14.495 9.71 14.81 10.18 Q 15.124 10.649 15.124 11.081 Q 15.124 11.341 14.927 11.554 Q 14.73 11.767 14.426 11.767 Q 14.159 11.767 13.93 11.598 Q 13.702 11.43 13.594 11.132 Q 13.448 10.751 13.131 10.519 Q 12.813 10.288 12.394 10.288 Q 12.058 10.288 11.725 10.481 Q 11.391 10.675 11.163 11.005 Q 10.7 11.678 10.617 13.404 Z M 12.331 17.346 Q 12.972 17.346 13.391 16.823 Q 13.81 16.299 13.81 15.448 Q 13.81 14.871 13.613 14.455 Q 13.416 14.039 13.074 13.82 Q 12.731 13.601 12.318 13.601 Q 11.925 13.601 11.566 13.811 Q 11.207 14.02 10.988 14.417 Q 10.769 14.813 10.769 15.347 Q 10.769 16.204 11.214 16.775 Q 11.658 17.346 12.331 17.346 Z" style="fill: currentcolor; paint-order: stroke; stroke: none; stroke-width: 1px; isolation: isolate;"/>
</svg>