<?xml version="1.0" encoding="utf-8"?>
<svg viewBox="0 0 24 24" fill="none" stroke-width="2" stroke="currentColor" xmlns="http://www.w3.org/2000/svg">
  <path stroke-linecap="round" stroke-linejoin="round" d="M8 7V3m8 4V3m-9 810M5 21h14a2 2 0 002-2V7a2 2 0 00-2-2H5a2 2 0 00-2 2v12a2 2 0 002 2z" style="stroke: currentcolor;"/>
  <path d="M 7.311 16.94 L 10.624 16.94 Q 11.119 16.94 11.38 17.143 Q 11.64 17.346 11.64 17.695 Q 11.64 18.006 11.434 18.222 Q 11.227 18.438 10.808 18.438 L 6.137 18.438 Q 5.66 18.438 5.394 18.175 Q 5.127 17.911 5.127 17.556 Q 5.127 17.327 5.299 16.949 Q 5.47 16.572 5.673 16.356 Q 6.517 15.48 7.197 14.855 Q 7.876 14.23 8.168 14.033 Q 8.688 13.665 9.034 13.293 Q 9.38 12.922 9.561 12.532 Q 9.742 12.141 9.742 11.767 Q 9.742 11.36 9.548 11.04 Q 9.355 10.719 9.022 10.542 Q 8.688 10.364 8.295 10.364 Q 7.463 10.364 6.987 11.094 Q 6.924 11.189 6.775 11.614 Q 6.625 12.04 6.438 12.268 Q 6.251 12.497 5.889 12.497 Q 5.572 12.497 5.362 12.287 Q 5.153 12.078 5.153 11.716 Q 5.153 11.278 5.349 10.802 Q 5.546 10.326 5.937 9.938 Q 6.327 9.551 6.927 9.313 Q 7.527 9.075 8.333 9.075 Q 9.304 9.075 9.99 9.38 Q 10.434 9.583 10.77 9.938 Q 11.107 10.294 11.294 10.761 Q 11.481 11.227 11.481 11.729 Q 11.481 12.516 11.091 13.16 Q 10.701 13.804 10.294 14.169 Q 9.888 14.534 8.933 15.315 Q 7.977 16.096 7.622 16.527 Q 7.47 16.699 7.311 16.94 Z M 18.744 13.874 Q 18.744 14.915 18.617 15.664 Q 18.49 16.413 18.148 17.022 Q 17.716 17.771 17.031 18.178 Q 16.345 18.584 15.507 18.584 Q 14.542 18.584 13.777 18.038 Q 13.012 17.492 12.625 16.527 Q 12.428 16 12.336 15.363 Q 12.244 14.725 12.244 13.982 Q 12.244 13.023 12.346 12.255 Q 12.447 11.487 12.663 10.935 Q 13.038 10.021 13.752 9.542 Q 14.466 9.063 15.456 9.063 Q 16.11 9.063 16.643 9.275 Q 17.177 9.488 17.58 9.897 Q 17.983 10.307 18.262 10.91 Q 18.744 11.957 18.744 13.874 Z M 17.005 13.747 Q 17.005 12.585 16.865 11.846 Q 16.726 11.106 16.396 10.729 Q 16.066 10.351 15.482 10.351 Q 14.644 10.351 14.317 11.195 Q 13.99 12.04 13.99 13.798 Q 13.99 14.991 14.13 15.753 Q 14.269 16.515 14.599 16.905 Q 14.929 17.295 15.494 17.295 Q 16.078 17.295 16.408 16.889 Q 16.739 16.483 16.872 15.728 Q 17.005 14.972 17.005 13.747 Z" style="fill: currentcolor; paint-order: stroke; stroke: none; stroke-width: 1px; isolation: isolate;"/>
</svg>