<?xml version="1.0" encoding="utf-8"?>
<svg viewBox="0 0 24 24" fill="none" stroke-width="2" stroke="currentColor" xmlns="http://www.w3.org/2000/svg">
  <path stroke-linecap="round" stroke-linejoin="round" d="M8 7V3m8 4V3m-9 810M5 21h14a2 2 0 002-2V7a2 2 0 00-2-2H5a2 2 0 00-2 2v12a2 2 0 002 2z" style="stroke: currentcolor;"/>
  <path d="M 7.311 16.94 L 10.624 16.94 Q 11.119 16.94 11.38 17.143 Q 11.64 17.346 11.64 17.695 Q 11.64 18.006 11.434 18.222 Q 11.227 18.438 10.808 18.438 L 6.137 18.438 Q 5.66 18.438 5.394 18.175 Q 5.127 17.911 5.127 17.556 Q 5.127 17.327 5.299 16.949 Q 5.47 16.572 5.673 16.356 Q 6.517 15.48 7.197 14.855 Q 7.876 14.23 8.168 14.033 Q 8.688 13.665 9.034 13.293 Q 9.38 12.922 9.561 12.532 Q 9.742 12.141 9.742 11.767 Q 9.742 11.36 9.548 11.04 Q 9.355 10.719 9.022 10.542 Q 8.688 10.364 8.295 10.364 Q 7.463 10.364 6.987 11.094 Q 6.924 11.189 6.775 11.614 Q 6.625 12.04 6.438 12.268 Q 6.251 12.497 5.889 12.497 Q 5.572 12.497 5.362 12.287 Q 5.153 12.078 5.153 11.716 Q 5.153 11.278 5.349 10.802 Q 5.546 10.326 5.937 9.938 Q 6.327 9.551 6.927 9.313 Q 7.527 9.075 8.333 9.075 Q 9.304 9.075 9.99 9.38 Q 10.434 9.583 10.77 9.938 Q 11.107 10.294 11.294 10.761 Q 11.481 11.227 11.481 11.729 Q 11.481 12.516 11.091 13.16 Q 10.701 13.804 10.294 14.169 Q 9.888 14.534 8.933 15.315 Q 7.977 16.096 7.622 16.527 Q 7.47 16.699 7.311 16.94 Z M 16.186 17.632 L 16.186 16.451 L 13 16.451 Q 12.397 16.451 12.095 16.178 Q 11.794 15.905 11.794 15.436 Q 11.794 15.315 11.838 15.191 Q 11.883 15.067 11.971 14.931 Q 12.06 14.794 12.156 14.667 Q 12.251 14.541 12.39 14.356 L 15.755 9.856 Q 16.085 9.412 16.297 9.212 Q 16.51 9.012 16.808 9.012 Q 17.773 9.012 17.773 10.116 L 17.773 15.029 L 18.046 15.029 Q 18.535 15.029 18.83 15.163 Q 19.125 15.296 19.125 15.747 Q 19.125 16.115 18.884 16.283 Q 18.643 16.451 18.16 16.451 L 17.773 16.451 L 17.773 17.632 Q 17.773 18.121 17.557 18.359 Q 17.342 18.597 16.98 18.597 Q 16.624 18.597 16.405 18.352 Q 16.186 18.108 16.186 17.632 Z M 13.457 15.029 L 16.186 15.029 L 16.186 11.341 Z" style="fill: currentcolor; paint-order: stroke; stroke: none; stroke-width: 1px; isolation: isolate;"/>
</svg>