<?xml version="1.0" encoding="utf-8"?>
<svg viewBox="0 0 24 24" fill="none" stroke-width="2" stroke="currentColor" xmlns="http://www.w3.org/2000/svg">
  <path stroke-linecap="round" stroke-linejoin="round" d="M8 7V3m8 4V3m-9 810M5 21h14a2 2 0 002-2V7a2 2 0 00-2-2H5a2 2 0 00-2 2v12a2 2 0 002 2z" style="stroke: currentcolor;"/>
  <path d="M 14.28 10.7 L 11.264 10.7 L 10.903 12.757 Q 11.804 12.274 12.566 12.274 Q 13.175 12.274 13.705 12.503 Q 14.235 12.731 14.635 13.135 Q 15.035 13.538 15.263 14.09 Q 15.492 14.642 15.492 15.277 Q 15.492 16.197 15.079 16.953 Q 14.667 17.708 13.889 18.152 Q 13.112 18.597 12.096 18.597 Q 10.96 18.597 10.252 18.178 Q 9.544 17.759 9.249 17.216 Q 8.954 16.673 8.954 16.267 Q 8.954 16.02 9.16 15.797 Q 9.366 15.575 9.678 15.575 Q 10.211 15.575 10.471 16.191 Q 10.725 16.756 11.157 17.07 Q 11.588 17.384 12.121 17.384 Q 12.61 17.384 12.978 17.13 Q 13.346 16.876 13.546 16.432 Q 13.746 15.988 13.746 15.423 Q 13.746 14.813 13.531 14.382 Q 13.315 13.95 12.953 13.738 Q 12.591 13.525 12.147 13.525 Q 11.601 13.525 11.366 13.658 Q 11.131 13.792 10.69 14.125 Q 10.249 14.458 9.963 14.458 Q 9.652 14.458 9.411 14.233 Q 9.17 14.007 9.17 13.722 Q 9.17 13.69 9.24 13.29 L 9.773 10.25 Q 9.862 9.704 10.103 9.456 Q 10.344 9.209 10.89 9.209 L 14.241 9.209 Q 15.232 9.209 15.232 9.964 Q 15.232 10.294 14.991 10.497 Q 14.749 10.7 14.28 10.7 Z" style="fill: currentcolor; paint-order: stroke; stroke: none; stroke-width: 1px; isolation: isolate;"/>
</svg>