<?xml version="1.0" encoding="utf-8"?>
<svg viewBox="0 0 24 24" fill="none" stroke-width="2" stroke="currentColor" xmlns="http://www.w3.org/2000/svg">
  <path stroke-linecap="round" stroke-linejoin="round" d="M8 7V3m8 4V3m-9 810M5 21h14a2 2 0 002-2V7a2 2 0 00-2-2H5a2 2 0 00-2 2v12a2 2 0 002 2z" style="stroke: currentcolor;"/>
  <path d="M 11.163 16.94 L 14.476 16.94 Q 14.971 16.94 15.232 17.143 Q 15.492 17.346 15.492 17.695 Q 15.492 18.006 15.286 18.222 Q 15.079 18.438 14.66 18.438 L 9.989 18.438 Q 9.512 18.438 9.246 18.175 Q 8.979 17.911 8.979 17.556 Q 8.979 17.327 9.151 16.949 Q 9.322 16.572 9.525 16.356 Q 10.369 15.48 11.049 14.855 Q 11.728 14.23 12.02 14.033 Q 12.54 13.665 12.886 13.293 Q 13.232 12.922 13.413 12.532 Q 13.594 12.141 13.594 11.767 Q 13.594 11.36 13.4 11.04 Q 13.207 10.719 12.874 10.542 Q 12.54 10.364 12.147 10.364 Q 11.315 10.364 10.839 11.094 Q 10.776 11.189 10.627 11.614 Q 10.477 12.04 10.29 12.268 Q 10.103 12.497 9.741 12.497 Q 9.424 12.497 9.214 12.287 Q 9.005 12.078 9.005 11.716 Q 9.005 11.278 9.201 10.802 Q 9.398 10.326 9.789 9.938 Q 10.179 9.551 10.779 9.313 Q 11.379 9.075 12.185 9.075 Q 13.156 9.075 13.842 9.38 Q 14.286 9.583 14.622 9.938 Q 14.959 10.294 15.146 10.761 Q 15.333 11.227 15.333 11.729 Q 15.333 12.516 14.943 13.16 Q 14.553 13.804 14.146 14.169 Q 13.74 14.534 12.785 15.315 Q 11.829 16.096 11.474 16.527 Q 11.322 16.699 11.163 16.94 Z" style="fill: currentcolor; paint-order: stroke; stroke: none; stroke-width: 1px; isolation: isolate;"/>
</svg>