<?xml version="1.0" encoding="utf-8"?>
<svg viewBox="0 0 24 24" fill="none" stroke-width="2" stroke="currentColor" xmlns="http://www.w3.org/2000/svg">
  <path stroke-linecap="round" stroke-linejoin="round" d="M8 7V3m8 4V3m-9 810M5 21h14a2 2 0 002-2V7a2 2 0 00-2-2H5a2 2 0 00-2 2v12a2 2 0 002 2z" style="stroke: currentcolor;"/>
  <path d="M 8.079 17.568 L 8.079 11.792 Q 6.467 13.03 5.908 13.03 Q 5.641 13.03 5.435 12.817 Q 5.229 12.605 5.229 12.325 Q 5.229 12.001 5.432 11.849 Q 5.635 11.697 6.149 11.456 Q 6.917 11.094 7.378 10.694 Q 7.838 10.294 8.193 9.799 Q 8.549 9.304 8.657 9.189 Q 8.764 9.075 9.063 9.075 Q 9.399 9.075 9.602 9.335 Q 9.806 9.596 9.806 10.053 L 9.806 17.321 Q 9.806 18.597 8.936 18.597 Q 8.549 18.597 8.314 18.336 Q 8.079 18.076 8.079 17.568 Z M 13.99 13.404 Q 14.422 12.89 14.929 12.643 Q 15.437 12.395 16.066 12.395 Q 16.669 12.395 17.18 12.62 Q 17.691 12.846 18.075 13.261 Q 18.459 13.677 18.668 14.242 Q 18.878 14.807 18.878 15.423 Q 18.878 16.318 18.468 17.048 Q 18.059 17.778 17.326 18.187 Q 16.593 18.597 15.666 18.597 Q 14.599 18.597 13.825 18.076 Q 13.051 17.556 12.641 16.537 Q 12.232 15.518 12.232 14.045 Q 12.232 12.846 12.479 11.9 Q 12.727 10.954 13.19 10.332 Q 13.654 9.71 14.314 9.393 Q 14.974 9.075 15.818 9.075 Q 16.631 9.075 17.249 9.393 Q 17.868 9.71 18.183 10.18 Q 18.497 10.649 18.497 11.081 Q 18.497 11.341 18.3 11.554 Q 18.103 11.767 17.799 11.767 Q 17.532 11.767 17.303 11.598 Q 17.075 11.43 16.967 11.132 Q 16.821 10.751 16.504 10.519 Q 16.186 10.288 15.767 10.288 Q 15.431 10.288 15.098 10.481 Q 14.764 10.675 14.536 11.005 Q 14.072 11.678 13.99 13.404 Z M 15.704 17.346 Q 16.345 17.346 16.764 16.823 Q 17.183 16.299 17.183 15.448 Q 17.183 14.871 16.986 14.455 Q 16.789 14.039 16.447 13.82 Q 16.104 13.601 15.691 13.601 Q 15.298 13.601 14.939 13.811 Q 14.58 14.02 14.361 14.417 Q 14.142 14.813 14.142 15.347 Q 14.142 16.204 14.587 16.775 Q 15.031 17.346 15.704 17.346 Z" style="fill: currentcolor; paint-order: stroke; stroke: none; stroke-width: 1px; isolation: isolate;"/>
</svg>