<?xml version="1.0" encoding="utf-8"?>
<svg viewBox="0 0 24 24" fill="none" stroke-width="2" stroke="currentColor" xmlns="http://www.w3.org/2000/svg">
  <path stroke-linecap="round" stroke-linejoin="round" d="M8 7V3m8 4V3m-9 810M5 21h14a2 2 0 002-2V7a2 2 0 00-2-2H5a2 2 0 00-2 2v12a2 2 0 002 2z" style="stroke: currentcolor;"/>
  <path d="M 8.079 17.568 L 8.079 11.792 Q 6.467 13.03 5.908 13.03 Q 5.641 13.03 5.435 12.817 Q 5.229 12.605 5.229 12.325 Q 5.229 12.001 5.432 11.849 Q 5.635 11.697 6.149 11.456 Q 6.917 11.094 7.378 10.694 Q 7.838 10.294 8.193 9.799 Q 8.549 9.304 8.657 9.189 Q 8.764 9.075 9.063 9.075 Q 9.399 9.075 9.602 9.335 Q 9.806 9.596 9.806 10.053 L 9.806 17.321 Q 9.806 18.597 8.936 18.597 Q 8.549 18.597 8.314 18.336 Q 8.079 18.076 8.079 17.568 Z M 15.196 12.82 Q 15.78 12.82 16.202 12.478 Q 16.624 12.135 16.624 11.494 Q 16.624 11.005 16.288 10.653 Q 15.951 10.3 15.38 10.3 Q 14.993 10.3 14.742 10.408 Q 14.491 10.516 14.345 10.694 Q 14.199 10.872 14.069 11.151 Q 13.939 11.43 13.831 11.678 Q 13.768 11.811 13.603 11.887 Q 13.438 11.963 13.222 11.963 Q 12.968 11.963 12.755 11.757 Q 12.543 11.551 12.543 11.208 Q 12.543 10.878 12.743 10.513 Q 12.943 10.148 13.327 9.818 Q 13.711 9.488 14.282 9.288 Q 14.853 9.088 15.558 9.088 Q 16.174 9.088 16.681 9.256 Q 17.189 9.424 17.564 9.742 Q 17.938 10.059 18.129 10.478 Q 18.319 10.897 18.319 11.379 Q 18.319 12.014 18.043 12.468 Q 17.767 12.922 17.253 13.354 Q 17.748 13.62 18.087 13.963 Q 18.427 14.306 18.598 14.721 Q 18.77 15.137 18.77 15.62 Q 18.77 16.197 18.538 16.737 Q 18.306 17.276 17.856 17.698 Q 17.405 18.121 16.786 18.359 Q 16.167 18.597 15.418 18.597 Q 14.656 18.597 14.053 18.324 Q 13.45 18.051 13.06 17.641 Q 12.67 17.232 12.47 16.794 Q 12.27 16.356 12.27 16.07 Q 12.27 15.702 12.508 15.477 Q 12.746 15.251 13.101 15.251 Q 13.279 15.251 13.444 15.356 Q 13.609 15.461 13.66 15.607 Q 13.99 16.489 14.368 16.918 Q 14.745 17.346 15.431 17.346 Q 15.824 17.346 16.189 17.153 Q 16.554 16.959 16.792 16.578 Q 17.031 16.197 17.031 15.696 Q 17.031 14.953 16.624 14.531 Q 16.218 14.109 15.494 14.109 Q 15.367 14.109 15.101 14.134 Q 14.834 14.16 14.758 14.16 Q 14.409 14.16 14.218 13.985 Q 14.028 13.811 14.028 13.5 Q 14.028 13.195 14.257 13.008 Q 14.485 12.82 14.936 12.82 Z" style="fill: currentcolor; paint-order: stroke; stroke: none; stroke-width: 1px; isolation: isolate;"/>
</svg>