<?xml version="1.0" encoding="utf-8"?>
<svg viewBox="0 0 24 24" fill="none" stroke-width="2" stroke="currentColor" xmlns="http://www.w3.org/2000/svg">
  <path stroke-linecap="round" stroke-linejoin="round" d="M8 7V3m8 4V3m-9 810M5 21h14a2 2 0 002-2V7a2 2 0 00-2-2H5a2 2 0 00-2 2v12a2 2 0 002 2z" style="stroke: currentcolor;"/>
  <path d="M 7.311 16.94 L 10.624 16.94 Q 11.119 16.94 11.38 17.143 Q 11.64 17.346 11.64 17.695 Q 11.64 18.006 11.434 18.222 Q 11.227 18.438 10.808 18.438 L 6.137 18.438 Q 5.66 18.438 5.394 18.175 Q 5.127 17.911 5.127 17.556 Q 5.127 17.327 5.299 16.949 Q 5.47 16.572 5.673 16.356 Q 6.517 15.48 7.197 14.855 Q 7.876 14.23 8.168 14.033 Q 8.688 13.665 9.034 13.293 Q 9.38 12.922 9.561 12.532 Q 9.742 12.141 9.742 11.767 Q 9.742 11.36 9.548 11.04 Q 9.355 10.719 9.022 10.542 Q 8.688 10.364 8.295 10.364 Q 7.463 10.364 6.987 11.094 Q 6.924 11.189 6.775 11.614 Q 6.625 12.04 6.438 12.268 Q 6.251 12.497 5.889 12.497 Q 5.572 12.497 5.362 12.287 Q 5.153 12.078 5.153 11.716 Q 5.153 11.278 5.349 10.802 Q 5.546 10.326 5.937 9.938 Q 6.327 9.551 6.927 9.313 Q 7.527 9.075 8.333 9.075 Q 9.304 9.075 9.99 9.38 Q 10.434 9.583 10.77 9.938 Q 11.107 10.294 11.294 10.761 Q 11.481 11.227 11.481 11.729 Q 11.481 12.516 11.091 13.16 Q 10.701 13.804 10.294 14.169 Q 9.888 14.534 8.933 15.315 Q 7.977 16.096 7.622 16.527 Q 7.47 16.699 7.311 16.94 Z M 12.505 11.494 Q 12.505 10.859 12.851 10.297 Q 13.197 9.735 13.866 9.399 Q 14.536 9.063 15.431 9.063 Q 16.186 9.063 16.758 9.259 Q 17.329 9.456 17.71 9.802 Q 18.091 10.148 18.275 10.583 Q 18.459 11.018 18.459 11.506 Q 18.459 12.128 18.138 12.617 Q 17.818 13.106 17.183 13.417 Q 17.722 13.626 18.078 13.966 Q 18.433 14.306 18.614 14.753 Q 18.795 15.201 18.795 15.747 Q 18.795 16.546 18.408 17.197 Q 18.021 17.848 17.272 18.216 Q 16.523 18.584 15.507 18.584 Q 14.453 18.584 13.704 18.216 Q 12.955 17.848 12.574 17.203 Q 12.194 16.559 12.194 15.759 Q 12.194 14.052 13.806 13.417 Q 12.505 12.808 12.505 11.494 Z M 17.056 15.696 Q 17.056 15.201 16.853 14.833 Q 16.65 14.464 16.281 14.268 Q 15.913 14.071 15.456 14.071 Q 14.809 14.071 14.371 14.502 Q 13.933 14.934 13.933 15.709 Q 13.933 16.204 14.139 16.581 Q 14.345 16.959 14.701 17.165 Q 15.056 17.372 15.494 17.372 Q 15.939 17.372 16.294 17.162 Q 16.65 16.953 16.853 16.572 Q 17.056 16.191 17.056 15.696 Z M 15.469 10.275 Q 14.872 10.275 14.507 10.646 Q 14.142 11.018 14.142 11.602 Q 14.142 12.141 14.517 12.5 Q 14.891 12.858 15.482 12.858 Q 15.78 12.858 16.024 12.763 Q 16.269 12.668 16.443 12.5 Q 16.618 12.332 16.713 12.1 Q 16.808 11.868 16.808 11.589 Q 16.808 11.214 16.64 10.916 Q 16.472 10.618 16.167 10.446 Q 15.863 10.275 15.469 10.275 Z" style="fill: currentcolor; paint-order: stroke; stroke: none; stroke-width: 1px; isolation: isolate;"/>
</svg>