<?xml version="1.0" encoding="utf-8"?>
<svg viewBox="0 0 24 24" fill="none" stroke-width="2" stroke="currentColor" xmlns="http://www.w3.org/2000/svg">
  <path stroke-linecap="round" stroke-linejoin="round" d="M8 7V3m8 4V3m-9 810M5 21h14a2 2 0 002-2V7a2 2 0 00-2-2H5a2 2 0 00-2 2v12a2 2 0 002 2z" style="stroke: currentcolor;"/>
  <path d="M 7.311 16.94 L 10.624 16.94 Q 11.119 16.94 11.38 17.143 Q 11.64 17.346 11.64 17.695 Q 11.64 18.006 11.434 18.222 Q 11.227 18.438 10.808 18.438 L 6.137 18.438 Q 5.66 18.438 5.394 18.175 Q 5.127 17.911 5.127 17.556 Q 5.127 17.327 5.299 16.949 Q 5.47 16.572 5.673 16.356 Q 6.517 15.48 7.197 14.855 Q 7.876 14.23 8.168 14.033 Q 8.688 13.665 9.034 13.293 Q 9.38 12.922 9.561 12.532 Q 9.742 12.141 9.742 11.767 Q 9.742 11.36 9.548 11.04 Q 9.355 10.719 9.022 10.542 Q 8.688 10.364 8.295 10.364 Q 7.463 10.364 6.987 11.094 Q 6.924 11.189 6.775 11.614 Q 6.625 12.04 6.438 12.268 Q 6.251 12.497 5.889 12.497 Q 5.572 12.497 5.362 12.287 Q 5.153 12.078 5.153 11.716 Q 5.153 11.278 5.349 10.802 Q 5.546 10.326 5.937 9.938 Q 6.327 9.551 6.927 9.313 Q 7.527 9.075 8.333 9.075 Q 9.304 9.075 9.99 9.38 Q 10.434 9.583 10.77 9.938 Q 11.107 10.294 11.294 10.761 Q 11.481 11.227 11.481 11.729 Q 11.481 12.516 11.091 13.16 Q 10.701 13.804 10.294 14.169 Q 9.888 14.534 8.933 15.315 Q 7.977 16.096 7.622 16.527 Q 7.47 16.699 7.311 16.94 Z M 13.99 13.404 Q 14.422 12.89 14.929 12.643 Q 15.437 12.395 16.066 12.395 Q 16.669 12.395 17.18 12.62 Q 17.691 12.846 18.075 13.261 Q 18.459 13.677 18.668 14.242 Q 18.878 14.807 18.878 15.423 Q 18.878 16.318 18.468 17.048 Q 18.059 17.778 17.326 18.187 Q 16.593 18.597 15.666 18.597 Q 14.599 18.597 13.825 18.076 Q 13.051 17.556 12.641 16.537 Q 12.232 15.518 12.232 14.045 Q 12.232 12.846 12.479 11.9 Q 12.727 10.954 13.19 10.332 Q 13.654 9.71 14.314 9.393 Q 14.974 9.075 15.818 9.075 Q 16.631 9.075 17.249 9.393 Q 17.868 9.71 18.183 10.18 Q 18.497 10.649 18.497 11.081 Q 18.497 11.341 18.3 11.554 Q 18.103 11.767 17.799 11.767 Q 17.532 11.767 17.303 11.598 Q 17.075 11.43 16.967 11.132 Q 16.821 10.751 16.504 10.519 Q 16.186 10.288 15.767 10.288 Q 15.431 10.288 15.098 10.481 Q 14.764 10.675 14.536 11.005 Q 14.072 11.678 13.99 13.404 Z M 15.704 17.346 Q 16.345 17.346 16.764 16.823 Q 17.183 16.299 17.183 15.448 Q 17.183 14.871 16.986 14.455 Q 16.789 14.039 16.447 13.82 Q 16.104 13.601 15.691 13.601 Q 15.298 13.601 14.939 13.811 Q 14.58 14.02 14.361 14.417 Q 14.142 14.813 14.142 15.347 Q 14.142 16.204 14.587 16.775 Q 15.031 17.346 15.704 17.346 Z" style="fill: currentcolor; paint-order: stroke; stroke: none; stroke-width: 1px; isolation: isolate;"/>
</svg>