<?xml version="1.0" encoding="utf-8"?>
<svg viewBox="0 0 24 24" fill="none" stroke-width="2" stroke="currentColor" xmlns="http://www.w3.org/2000/svg">
  <path stroke-linecap="round" stroke-linejoin="round" d="M8 7V3m8 4V3m-9 810M5 21h14a2 2 0 002-2V7a2 2 0 00-2-2H5a2 2 0 00-2 2v12a2 2 0 002 2z" style="stroke: currentcolor;"/>
  <path d="M 7.311 16.94 L 10.624 16.94 Q 11.119 16.94 11.38 17.143 Q 11.64 17.346 11.64 17.695 Q 11.64 18.006 11.434 18.222 Q 11.227 18.438 10.808 18.438 L 6.137 18.438 Q 5.66 18.438 5.394 18.175 Q 5.127 17.911 5.127 17.556 Q 5.127 17.327 5.299 16.949 Q 5.47 16.572 5.673 16.356 Q 6.517 15.48 7.197 14.855 Q 7.876 14.23 8.168 14.033 Q 8.688 13.665 9.034 13.293 Q 9.38 12.922 9.561 12.532 Q 9.742 12.141 9.742 11.767 Q 9.742 11.36 9.548 11.04 Q 9.355 10.719 9.022 10.542 Q 8.688 10.364 8.295 10.364 Q 7.463 10.364 6.987 11.094 Q 6.924 11.189 6.775 11.614 Q 6.625 12.04 6.438 12.268 Q 6.251 12.497 5.889 12.497 Q 5.572 12.497 5.362 12.287 Q 5.153 12.078 5.153 11.716 Q 5.153 11.278 5.349 10.802 Q 5.546 10.326 5.937 9.938 Q 6.327 9.551 6.927 9.313 Q 7.527 9.075 8.333 9.075 Q 9.304 9.075 9.99 9.38 Q 10.434 9.583 10.77 9.938 Q 11.107 10.294 11.294 10.761 Q 11.481 11.227 11.481 11.729 Q 11.481 12.516 11.091 13.16 Q 10.701 13.804 10.294 14.169 Q 9.888 14.534 8.933 15.315 Q 7.977 16.096 7.622 16.527 Q 7.47 16.699 7.311 16.94 Z M 16.929 14.268 Q 16.51 14.763 15.993 15.013 Q 15.475 15.264 14.847 15.264 Q 14.25 15.264 13.733 15.032 Q 13.216 14.801 12.838 14.385 Q 12.46 13.969 12.257 13.414 Q 12.054 12.858 12.054 12.249 Q 12.054 11.595 12.282 11.008 Q 12.511 10.421 12.936 9.989 Q 13.362 9.558 13.949 9.316 Q 14.536 9.075 15.247 9.075 Q 16.066 9.075 16.707 9.374 Q 17.348 9.672 17.786 10.24 Q 18.224 10.808 18.459 11.671 Q 18.694 12.535 18.694 13.626 Q 18.694 14.845 18.446 15.775 Q 18.198 16.705 17.726 17.337 Q 17.253 17.968 16.593 18.276 Q 15.932 18.584 15.094 18.584 Q 14.269 18.584 13.66 18.27 Q 13.051 17.956 12.733 17.489 Q 12.416 17.022 12.416 16.591 Q 12.416 16.324 12.613 16.115 Q 12.809 15.905 13.114 15.905 Q 13.393 15.905 13.615 16.061 Q 13.838 16.216 13.952 16.527 Q 14.092 16.908 14.415 17.14 Q 14.739 17.372 15.145 17.372 Q 15.507 17.372 15.831 17.188 Q 16.155 17.003 16.383 16.667 Q 16.84 15.988 16.929 14.268 Z M 16.783 12.325 Q 16.783 11.894 16.666 11.529 Q 16.548 11.164 16.335 10.897 Q 16.123 10.63 15.828 10.478 Q 15.532 10.326 15.183 10.326 Q 14.58 10.326 14.161 10.843 Q 13.742 11.36 13.742 12.211 Q 13.742 13.055 14.161 13.557 Q 14.58 14.058 15.221 14.058 Q 15.615 14.058 15.974 13.852 Q 16.332 13.646 16.558 13.252 Q 16.783 12.858 16.783 12.325 Z" style="fill: currentcolor; paint-order: stroke; stroke: none; stroke-width: 1px; isolation: isolate;"/>
</svg>