<?xml version="1.0" encoding="utf-8"?>
<svg viewBox="0 0 24 24" fill="none" stroke-width="2" stroke="currentColor" xmlns="http://www.w3.org/2000/svg">
  <path stroke-linecap="round" stroke-linejoin="round" d="M8 7V3m8 4V3m-9 810M5 21h14a2 2 0 002-2V7a2 2 0 00-2-2H5a2 2 0 00-2 2v12a2 2 0 002 2z" style="stroke: currentcolor;"/>
  <path d="M 7.311 16.94 L 10.624 16.94 Q 11.119 16.94 11.38 17.143 Q 11.64 17.346 11.64 17.695 Q 11.64 18.006 11.434 18.222 Q 11.227 18.438 10.808 18.438 L 6.137 18.438 Q 5.66 18.438 5.394 18.175 Q 5.127 17.911 5.127 17.556 Q 5.127 17.327 5.299 16.949 Q 5.47 16.572 5.673 16.356 Q 6.517 15.48 7.197 14.855 Q 7.876 14.23 8.168 14.033 Q 8.688 13.665 9.034 13.293 Q 9.38 12.922 9.561 12.532 Q 9.742 12.141 9.742 11.767 Q 9.742 11.36 9.548 11.04 Q 9.355 10.719 9.022 10.542 Q 8.688 10.364 8.295 10.364 Q 7.463 10.364 6.987 11.094 Q 6.924 11.189 6.775 11.614 Q 6.625 12.04 6.438 12.268 Q 6.251 12.497 5.889 12.497 Q 5.572 12.497 5.362 12.287 Q 5.153 12.078 5.153 11.716 Q 5.153 11.278 5.349 10.802 Q 5.546 10.326 5.937 9.938 Q 6.327 9.551 6.927 9.313 Q 7.527 9.075 8.333 9.075 Q 9.304 9.075 9.99 9.38 Q 10.434 9.583 10.77 9.938 Q 11.107 10.294 11.294 10.761 Q 11.481 11.227 11.481 11.729 Q 11.481 12.516 11.091 13.16 Q 10.701 13.804 10.294 14.169 Q 9.888 14.534 8.933 15.315 Q 7.977 16.096 7.622 16.527 Q 7.47 16.699 7.311 16.94 Z M 14.536 16.94 L 17.849 16.94 Q 18.344 16.94 18.605 17.143 Q 18.865 17.346 18.865 17.695 Q 18.865 18.006 18.659 18.222 Q 18.452 18.438 18.033 18.438 L 13.362 18.438 Q 12.885 18.438 12.619 18.175 Q 12.352 17.911 12.352 17.556 Q 12.352 17.327 12.524 16.949 Q 12.695 16.572 12.898 16.356 Q 13.742 15.48 14.422 14.855 Q 15.101 14.23 15.393 14.033 Q 15.913 13.665 16.259 13.293 Q 16.605 12.922 16.786 12.532 Q 16.967 12.141 16.967 11.767 Q 16.967 11.36 16.773 11.04 Q 16.58 10.719 16.247 10.542 Q 15.913 10.364 15.52 10.364 Q 14.688 10.364 14.212 11.094 Q 14.149 11.189 13.999 11.614 Q 13.85 12.04 13.663 12.268 Q 13.476 12.497 13.114 12.497 Q 12.797 12.497 12.587 12.287 Q 12.378 12.078 12.378 11.716 Q 12.378 11.278 12.574 10.802 Q 12.771 10.326 13.162 9.938 Q 13.552 9.551 14.152 9.313 Q 14.752 9.075 15.558 9.075 Q 16.529 9.075 17.215 9.38 Q 17.659 9.583 17.995 9.938 Q 18.332 10.294 18.519 10.761 Q 18.706 11.227 18.706 11.729 Q 18.706 12.516 18.316 13.16 Q 17.926 13.804 17.519 14.169 Q 17.113 14.534 16.158 15.315 Q 15.202 16.096 14.847 16.527 Q 14.695 16.699 14.536 16.94 Z" style="fill: currentcolor; paint-order: stroke; stroke: none; stroke-width: 1px; isolation: isolate;"/>
</svg>