<?xml version="1.0" encoding="utf-8"?>
<svg viewBox="0 0 24 24" fill="none" stroke-width="2" stroke="currentColor" xmlns="http://www.w3.org/2000/svg">
  <path stroke-linecap="round" stroke-linejoin="round" d="M8 7V3m8 4V3m-9 810M5 21h14a2 2 0 002-2V7a2 2 0 00-2-2H5a2 2 0 00-2 2v12a2 2 0 002 2z" style="stroke: currentcolor;"/>
  <path d="M 7.311 16.94 L 10.624 16.94 Q 11.119 16.94 11.38 17.143 Q 11.64 17.346 11.64 17.695 Q 11.64 18.006 11.434 18.222 Q 11.227 18.438 10.808 18.438 L 6.137 18.438 Q 5.66 18.438 5.394 18.175 Q 5.127 17.911 5.127 17.556 Q 5.127 17.327 5.299 16.949 Q 5.47 16.572 5.673 16.356 Q 6.517 15.48 7.197 14.855 Q 7.876 14.23 8.168 14.033 Q 8.688 13.665 9.034 13.293 Q 9.38 12.922 9.561 12.532 Q 9.742 12.141 9.742 11.767 Q 9.742 11.36 9.548 11.04 Q 9.355 10.719 9.022 10.542 Q 8.688 10.364 8.295 10.364 Q 7.463 10.364 6.987 11.094 Q 6.924 11.189 6.775 11.614 Q 6.625 12.04 6.438 12.268 Q 6.251 12.497 5.889 12.497 Q 5.572 12.497 5.362 12.287 Q 5.153 12.078 5.153 11.716 Q 5.153 11.278 5.349 10.802 Q 5.546 10.326 5.937 9.938 Q 6.327 9.551 6.927 9.313 Q 7.527 9.075 8.333 9.075 Q 9.304 9.075 9.99 9.38 Q 10.434 9.583 10.77 9.938 Q 11.107 10.294 11.294 10.761 Q 11.481 11.227 11.481 11.729 Q 11.481 12.516 11.091 13.16 Q 10.701 13.804 10.294 14.169 Q 9.888 14.534 8.933 15.315 Q 7.977 16.096 7.622 16.527 Q 7.47 16.699 7.311 16.94 Z M 13.66 9.221 L 17.887 9.221 Q 18.497 9.221 18.77 9.412 Q 19.043 9.602 19.043 10.04 Q 19.043 10.307 18.722 10.745 Q 18.402 11.183 17.992 11.713 Q 17.583 12.243 17.148 13.03 Q 16.713 13.817 16.351 14.953 Q 16.199 15.455 16.135 15.785 Q 16.072 16.115 15.996 16.642 Q 15.92 17.168 15.863 17.448 Q 15.729 18.095 15.485 18.346 Q 15.24 18.597 14.834 18.597 Q 14.447 18.597 14.212 18.327 Q 13.977 18.057 13.977 17.53 Q 13.977 17.124 14.149 16.426 Q 14.32 15.728 14.707 14.753 Q 15.094 13.779 15.675 12.754 Q 16.256 11.729 17.056 10.713 L 13.66 10.713 Q 13.127 10.713 12.863 10.519 Q 12.6 10.326 12.6 9.913 Q 12.6 9.475 12.879 9.348 Q 13.158 9.221 13.66 9.221 Z" style="fill: currentcolor; paint-order: stroke; stroke: none; stroke-width: 1px; isolation: isolate;"/>
</svg>