<?xml version="1.0" encoding="utf-8"?>
<svg viewBox="0 0 24 24" fill="none" stroke-width="2" stroke="currentColor" xmlns="http://www.w3.org/2000/svg">
  <path stroke-linecap="round" stroke-linejoin="round" d="M8 7V3m8 4V3m-9 810M5 21h14a2 2 0 002-2V7a2 2 0 00-2-2H5a2 2 0 00-2 2v12a2 2 0 002 2z" style="stroke: currentcolor;"/>
  <path d="M 11.823 12.82 Q 12.407 12.82 12.829 12.478 Q 13.251 12.135 13.251 11.494 Q 13.251 11.005 12.915 10.653 Q 12.578 10.3 12.007 10.3 Q 11.62 10.3 11.369 10.408 Q 11.118 10.516 10.972 10.694 Q 10.826 10.872 10.696 11.151 Q 10.566 11.43 10.458 11.678 Q 10.395 11.811 10.23 11.887 Q 10.065 11.963 9.849 11.963 Q 9.595 11.963 9.382 11.757 Q 9.17 11.551 9.17 11.208 Q 9.17 10.878 9.37 10.513 Q 9.57 10.148 9.954 9.818 Q 10.338 9.488 10.909 9.288 Q 11.48 9.088 12.185 9.088 Q 12.801 9.088 13.308 9.256 Q 13.816 9.424 14.191 9.742 Q 14.565 10.059 14.756 10.478 Q 14.946 10.897 14.946 11.379 Q 14.946 12.014 14.67 12.468 Q 14.394 12.922 13.88 13.354 Q 14.375 13.62 14.714 13.963 Q 15.054 14.306 15.225 14.721 Q 15.397 15.137 15.397 15.62 Q 15.397 16.197 15.165 16.737 Q 14.933 17.276 14.483 17.698 Q 14.032 18.121 13.413 18.359 Q 12.794 18.597 12.045 18.597 Q 11.283 18.597 10.68 18.324 Q 10.077 18.051 9.687 17.641 Q 9.297 17.232 9.097 16.794 Q 8.897 16.356 8.897 16.07 Q 8.897 15.702 9.135 15.477 Q 9.373 15.251 9.728 15.251 Q 9.906 15.251 10.071 15.356 Q 10.236 15.461 10.287 15.607 Q 10.617 16.489 10.995 16.918 Q 11.372 17.346 12.058 17.346 Q 12.451 17.346 12.816 17.153 Q 13.181 16.959 13.419 16.578 Q 13.658 16.197 13.658 15.696 Q 13.658 14.953 13.251 14.531 Q 12.845 14.109 12.121 14.109 Q 11.994 14.109 11.728 14.134 Q 11.461 14.16 11.385 14.16 Q 11.036 14.16 10.845 13.985 Q 10.655 13.811 10.655 13.5 Q 10.655 13.195 10.884 13.008 Q 11.112 12.82 11.563 12.82 Z" style="fill: currentcolor; paint-order: stroke; stroke: none; stroke-width: 1px; isolation: isolate;"/>
</svg>