<?xml version="1.0" encoding="utf-8"?>
<svg viewBox="0 0 24 24" fill="none" stroke-width="2" stroke="currentColor" xmlns="http://www.w3.org/2000/svg">
  <path stroke-linecap="round" stroke-linejoin="round" d="M8 7V3m8 4V3m-9 810M5 21h14a2 2 0 002-2V7a2 2 0 00-2-2H5a2 2 0 00-2 2v12a2 2 0 002 2z" style="stroke: currentcolor;"/>
  <path d="M 8.079 17.568 L 8.079 11.792 Q 6.467 13.03 5.908 13.03 Q 5.641 13.03 5.435 12.817 Q 5.229 12.605 5.229 12.325 Q 5.229 12.001 5.432 11.849 Q 5.635 11.697 6.149 11.456 Q 6.917 11.094 7.378 10.694 Q 7.838 10.294 8.193 9.799 Q 8.549 9.304 8.657 9.189 Q 8.764 9.075 9.063 9.075 Q 9.399 9.075 9.602 9.335 Q 9.806 9.596 9.806 10.053 L 9.806 17.321 Q 9.806 18.597 8.936 18.597 Q 8.549 18.597 8.314 18.336 Q 8.079 18.076 8.079 17.568 Z M 16.929 14.268 Q 16.51 14.763 15.993 15.013 Q 15.475 15.264 14.847 15.264 Q 14.25 15.264 13.733 15.032 Q 13.216 14.801 12.838 14.385 Q 12.46 13.969 12.257 13.414 Q 12.054 12.858 12.054 12.249 Q 12.054 11.595 12.282 11.008 Q 12.511 10.421 12.936 9.989 Q 13.362 9.558 13.949 9.316 Q 14.536 9.075 15.247 9.075 Q 16.066 9.075 16.707 9.374 Q 17.348 9.672 17.786 10.24 Q 18.224 10.808 18.459 11.671 Q 18.694 12.535 18.694 13.626 Q 18.694 14.845 18.446 15.775 Q 18.198 16.705 17.726 17.337 Q 17.253 17.968 16.593 18.276 Q 15.932 18.584 15.094 18.584 Q 14.269 18.584 13.66 18.27 Q 13.051 17.956 12.733 17.489 Q 12.416 17.022 12.416 16.591 Q 12.416 16.324 12.613 16.115 Q 12.809 15.905 13.114 15.905 Q 13.393 15.905 13.615 16.061 Q 13.838 16.216 13.952 16.527 Q 14.092 16.908 14.415 17.14 Q 14.739 17.372 15.145 17.372 Q 15.507 17.372 15.831 17.188 Q 16.155 17.003 16.383 16.667 Q 16.84 15.988 16.929 14.268 Z M 16.783 12.325 Q 16.783 11.894 16.666 11.529 Q 16.548 11.164 16.335 10.897 Q 16.123 10.63 15.828 10.478 Q 15.532 10.326 15.183 10.326 Q 14.58 10.326 14.161 10.843 Q 13.742 11.36 13.742 12.211 Q 13.742 13.055 14.161 13.557 Q 14.58 14.058 15.221 14.058 Q 15.615 14.058 15.974 13.852 Q 16.332 13.646 16.558 13.252 Q 16.783 12.858 16.783 12.325 Z" style="fill: currentcolor; paint-order: stroke; stroke: none; stroke-width: 1px; isolation: isolate;"/>
</svg>