<?xml version="1.0" encoding="utf-8"?>
<svg viewBox="0 0 24 24" fill="none" stroke-width="2" stroke="currentColor" xmlns="http://www.w3.org/2000/svg">
  <path stroke-linecap="round" stroke-linejoin="round" d="M8 7V3m8 4V3m-9 810M5 21h14a2 2 0 002-2V7a2 2 0 00-2-2H5a2 2 0 00-2 2v12a2 2 0 002 2z" style="stroke: currentcolor;"/>
  <path d="M 7.311 16.94 L 10.624 16.94 Q 11.119 16.94 11.38 17.143 Q 11.64 17.346 11.64 17.695 Q 11.64 18.006 11.434 18.222 Q 11.227 18.438 10.808 18.438 L 6.137 18.438 Q 5.66 18.438 5.394 18.175 Q 5.127 17.911 5.127 17.556 Q 5.127 17.327 5.299 16.949 Q 5.47 16.572 5.673 16.356 Q 6.517 15.48 7.197 14.855 Q 7.876 14.23 8.168 14.033 Q 8.688 13.665 9.034 13.293 Q 9.38 12.922 9.561 12.532 Q 9.742 12.141 9.742 11.767 Q 9.742 11.36 9.548 11.04 Q 9.355 10.719 9.022 10.542 Q 8.688 10.364 8.295 10.364 Q 7.463 10.364 6.987 11.094 Q 6.924 11.189 6.775 11.614 Q 6.625 12.04 6.438 12.268 Q 6.251 12.497 5.889 12.497 Q 5.572 12.497 5.362 12.287 Q 5.153 12.078 5.153 11.716 Q 5.153 11.278 5.349 10.802 Q 5.546 10.326 5.937 9.938 Q 6.327 9.551 6.927 9.313 Q 7.527 9.075 8.333 9.075 Q 9.304 9.075 9.99 9.38 Q 10.434 9.583 10.77 9.938 Q 11.107 10.294 11.294 10.761 Q 11.481 11.227 11.481 11.729 Q 11.481 12.516 11.091 13.16 Q 10.701 13.804 10.294 14.169 Q 9.888 14.534 8.933 15.315 Q 7.977 16.096 7.622 16.527 Q 7.47 16.699 7.311 16.94 Z M 17.653 10.7 L 14.637 10.7 L 14.276 12.757 Q 15.177 12.274 15.939 12.274 Q 16.548 12.274 17.078 12.503 Q 17.608 12.731 18.008 13.135 Q 18.408 13.538 18.636 14.09 Q 18.865 14.642 18.865 15.277 Q 18.865 16.197 18.452 16.953 Q 18.04 17.708 17.262 18.152 Q 16.485 18.597 15.469 18.597 Q 14.333 18.597 13.625 18.178 Q 12.917 17.759 12.622 17.216 Q 12.327 16.673 12.327 16.267 Q 12.327 16.02 12.533 15.797 Q 12.739 15.575 13.051 15.575 Q 13.584 15.575 13.844 16.191 Q 14.098 16.756 14.53 17.07 Q 14.961 17.384 15.494 17.384 Q 15.983 17.384 16.351 17.13 Q 16.719 16.876 16.919 16.432 Q 17.119 15.988 17.119 15.423 Q 17.119 14.813 16.904 14.382 Q 16.688 13.95 16.326 13.738 Q 15.964 13.525 15.52 13.525 Q 14.974 13.525 14.739 13.658 Q 14.504 13.792 14.063 14.125 Q 13.622 14.458 13.336 14.458 Q 13.025 14.458 12.784 14.233 Q 12.543 14.007 12.543 13.722 Q 12.543 13.69 12.613 13.29 L 13.146 10.25 Q 13.235 9.704 13.476 9.456 Q 13.717 9.209 14.263 9.209 L 17.614 9.209 Q 18.605 9.209 18.605 9.964 Q 18.605 10.294 18.364 10.497 Q 18.122 10.7 17.653 10.7 Z" style="fill: currentcolor; paint-order: stroke; stroke: none; stroke-width: 1px; isolation: isolate;"/>
</svg>