<?xml version="1.0" encoding="utf-8"?>
<svg viewBox="0 0 24 24" fill="none" stroke-width="2" stroke="currentColor" xmlns="http://www.w3.org/2000/svg">
  <path stroke-linecap="round" stroke-linejoin="round" d="M8 7V3m8 4V3m-9 810M5 21h14a2 2 0 002-2V7a2 2 0 00-2-2H5a2 2 0 00-2 2v12a2 2 0 002 2z" style="stroke: currentcolor;"/>
  <path d="M 8.079 17.568 L 8.079 11.792 Q 6.467 13.03 5.908 13.03 Q 5.641 13.03 5.435 12.817 Q 5.229 12.605 5.229 12.325 Q 5.229 12.001 5.432 11.849 Q 5.635 11.697 6.149 11.456 Q 6.917 11.094 7.378 10.694 Q 7.838 10.294 8.193 9.799 Q 8.549 9.304 8.657 9.189 Q 8.764 9.075 9.063 9.075 Q 9.399 9.075 9.602 9.335 Q 9.806 9.596 9.806 10.053 L 9.806 17.321 Q 9.806 18.597 8.936 18.597 Q 8.549 18.597 8.314 18.336 Q 8.079 18.076 8.079 17.568 Z M 17.653 10.7 L 14.637 10.7 L 14.276 12.757 Q 15.177 12.274 15.939 12.274 Q 16.548 12.274 17.078 12.503 Q 17.608 12.731 18.008 13.135 Q 18.408 13.538 18.636 14.09 Q 18.865 14.642 18.865 15.277 Q 18.865 16.197 18.452 16.953 Q 18.04 17.708 17.262 18.152 Q 16.485 18.597 15.469 18.597 Q 14.333 18.597 13.625 18.178 Q 12.917 17.759 12.622 17.216 Q 12.327 16.673 12.327 16.267 Q 12.327 16.02 12.533 15.797 Q 12.739 15.575 13.051 15.575 Q 13.584 15.575 13.844 16.191 Q 14.098 16.756 14.53 17.07 Q 14.961 17.384 15.494 17.384 Q 15.983 17.384 16.351 17.13 Q 16.719 16.876 16.919 16.432 Q 17.119 15.988 17.119 15.423 Q 17.119 14.813 16.904 14.382 Q 16.688 13.95 16.326 13.738 Q 15.964 13.525 15.52 13.525 Q 14.974 13.525 14.739 13.658 Q 14.504 13.792 14.063 14.125 Q 13.622 14.458 13.336 14.458 Q 13.025 14.458 12.784 14.233 Q 12.543 14.007 12.543 13.722 Q 12.543 13.69 12.613 13.29 L 13.146 10.25 Q 13.235 9.704 13.476 9.456 Q 13.717 9.209 14.263 9.209 L 17.614 9.209 Q 18.605 9.209 18.605 9.964 Q 18.605 10.294 18.364 10.497 Q 18.122 10.7 17.653 10.7 Z" style="fill: currentcolor; paint-order: stroke; stroke: none; stroke-width: 1px; isolation: isolate;"/>
</svg>