<?xml version="1.0" encoding="utf-8"?>
<svg viewBox="0 0 24 24" fill="none" stroke-width="2" stroke="currentColor" xmlns="http://www.w3.org/2000/svg">
  <path stroke-linecap="round" stroke-linejoin="round" d="M8 7V3m8 4V3m-9 810M5 21h14a2 2 0 002-2V7a2 2 0 00-2-2H5a2 2 0 00-2 2v12a2 2 0 002 2z" style="stroke: currentcolor;"/>
  <path d="M 7.971 12.82 Q 8.555 12.82 8.977 12.478 Q 9.399 12.135 9.399 11.494 Q 9.399 11.005 9.063 10.653 Q 8.726 10.3 8.155 10.3 Q 7.768 10.3 7.517 10.408 Q 7.266 10.516 7.12 10.694 Q 6.974 10.872 6.844 11.151 Q 6.714 11.43 6.606 11.678 Q 6.543 11.811 6.378 11.887 Q 6.213 11.963 5.997 11.963 Q 5.743 11.963 5.53 11.757 Q 5.318 11.551 5.318 11.208 Q 5.318 10.878 5.518 10.513 Q 5.718 10.148 6.102 9.818 Q 6.486 9.488 7.057 9.288 Q 7.628 9.088 8.333 9.088 Q 8.949 9.088 9.456 9.256 Q 9.964 9.424 10.339 9.742 Q 10.713 10.059 10.904 10.478 Q 11.094 10.897 11.094 11.379 Q 11.094 12.014 10.818 12.468 Q 10.542 12.922 10.028 13.354 Q 10.523 13.62 10.862 13.963 Q 11.202 14.306 11.373 14.721 Q 11.545 15.137 11.545 15.62 Q 11.545 16.197 11.313 16.737 Q 11.081 17.276 10.631 17.698 Q 10.18 18.121 9.561 18.359 Q 8.942 18.597 8.193 18.597 Q 7.431 18.597 6.828 18.324 Q 6.225 18.051 5.835 17.641 Q 5.445 17.232 5.245 16.794 Q 5.045 16.356 5.045 16.07 Q 5.045 15.702 5.283 15.477 Q 5.521 15.251 5.876 15.251 Q 6.054 15.251 6.219 15.356 Q 6.384 15.461 6.435 15.607 Q 6.765 16.489 7.143 16.918 Q 7.52 17.346 8.206 17.346 Q 8.599 17.346 8.964 17.153 Q 9.329 16.959 9.567 16.578 Q 9.806 16.197 9.806 15.696 Q 9.806 14.953 9.399 14.531 Q 8.993 14.109 8.269 14.109 Q 8.142 14.109 7.876 14.134 Q 7.609 14.16 7.533 14.16 Q 7.184 14.16 6.993 13.985 Q 6.803 13.811 6.803 13.5 Q 6.803 13.195 7.032 13.008 Q 7.26 12.82 7.711 12.82 Z M 15.304 17.568 L 15.304 11.792 Q 13.692 13.03 13.133 13.03 Q 12.866 13.03 12.66 12.817 Q 12.454 12.605 12.454 12.325 Q 12.454 12.001 12.657 11.849 Q 12.86 11.697 13.374 11.456 Q 14.142 11.094 14.603 10.694 Q 15.063 10.294 15.418 9.799 Q 15.774 9.304 15.882 9.189 Q 15.989 9.075 16.288 9.075 Q 16.624 9.075 16.827 9.335 Q 17.031 9.596 17.031 10.053 L 17.031 17.321 Q 17.031 18.597 16.161 18.597 Q 15.774 18.597 15.539 18.336 Q 15.304 18.076 15.304 17.568 Z" style="fill: currentcolor; paint-order: stroke; stroke: none; stroke-width: 1px; isolation: isolate;"/>
</svg>