<?xml version="1.0" encoding="utf-8"?>
<svg viewBox="0 0 24 24" fill="none" stroke-width="2" stroke="currentColor" xmlns="http://www.w3.org/2000/svg">
  <path stroke-linecap="round" stroke-linejoin="round" d="M8 7V3m8 4V3m-9 810M5 21h14a2 2 0 002-2V7a2 2 0 00-2-2H5a2 2 0 00-2 2v12a2 2 0 002 2z" style="stroke: currentcolor;"/>
  <path d="M 8.079 17.568 L 8.079 11.792 Q 6.467 13.03 5.908 13.03 Q 5.641 13.03 5.435 12.817 Q 5.229 12.605 5.229 12.325 Q 5.229 12.001 5.432 11.849 Q 5.635 11.697 6.149 11.456 Q 6.917 11.094 7.378 10.694 Q 7.838 10.294 8.193 9.799 Q 8.549 9.304 8.657 9.189 Q 8.764 9.075 9.063 9.075 Q 9.399 9.075 9.602 9.335 Q 9.806 9.596 9.806 10.053 L 9.806 17.321 Q 9.806 18.597 8.936 18.597 Q 8.549 18.597 8.314 18.336 Q 8.079 18.076 8.079 17.568 Z M 18.744 13.874 Q 18.744 14.915 18.617 15.664 Q 18.49 16.413 18.148 17.022 Q 17.716 17.771 17.031 18.178 Q 16.345 18.584 15.507 18.584 Q 14.542 18.584 13.777 18.038 Q 13.012 17.492 12.625 16.527 Q 12.428 16 12.336 15.363 Q 12.244 14.725 12.244 13.982 Q 12.244 13.023 12.346 12.255 Q 12.447 11.487 12.663 10.935 Q 13.038 10.021 13.752 9.542 Q 14.466 9.063 15.456 9.063 Q 16.11 9.063 16.643 9.275 Q 17.177 9.488 17.58 9.897 Q 17.983 10.307 18.262 10.91 Q 18.744 11.957 18.744 13.874 Z M 17.005 13.747 Q 17.005 12.585 16.865 11.846 Q 16.726 11.106 16.396 10.729 Q 16.066 10.351 15.482 10.351 Q 14.644 10.351 14.317 11.195 Q 13.99 12.04 13.99 13.798 Q 13.99 14.991 14.13 15.753 Q 14.269 16.515 14.599 16.905 Q 14.929 17.295 15.494 17.295 Q 16.078 17.295 16.408 16.889 Q 16.739 16.483 16.872 15.728 Q 17.005 14.972 17.005 13.747 Z" style="fill: currentcolor; paint-order: stroke; stroke: none; stroke-width: 1px; isolation: isolate;"/>
</svg>