<?xml version="1.0" encoding="utf-8"?>
<svg viewBox="0 0 24 24" fill="none" stroke-width="2" stroke="currentColor" xmlns="http://www.w3.org/2000/svg">
  <path stroke-linecap="round" stroke-linejoin="round" d="M8 7V3m8 4V3m-9 810M5 21h14a2 2 0 002-2V7a2 2 0 00-2-2H5a2 2 0 00-2 2v12a2 2 0 002 2z" style="stroke: currentcolor;"/>
  <path d="M 8.079 17.568 L 8.079 11.792 Q 6.467 13.03 5.908 13.03 Q 5.641 13.03 5.435 12.817 Q 5.229 12.605 5.229 12.325 Q 5.229 12.001 5.432 11.849 Q 5.635 11.697 6.149 11.456 Q 6.917 11.094 7.378 10.694 Q 7.838 10.294 8.193 9.799 Q 8.549 9.304 8.657 9.189 Q 8.764 9.075 9.063 9.075 Q 9.399 9.075 9.602 9.335 Q 9.806 9.596 9.806 10.053 L 9.806 17.321 Q 9.806 18.597 8.936 18.597 Q 8.549 18.597 8.314 18.336 Q 8.079 18.076 8.079 17.568 Z M 13.66 9.221 L 17.887 9.221 Q 18.497 9.221 18.77 9.412 Q 19.043 9.602 19.043 10.04 Q 19.043 10.307 18.722 10.745 Q 18.402 11.183 17.992 11.713 Q 17.583 12.243 17.148 13.03 Q 16.713 13.817 16.351 14.953 Q 16.199 15.455 16.135 15.785 Q 16.072 16.115 15.996 16.642 Q 15.92 17.168 15.863 17.448 Q 15.729 18.095 15.485 18.346 Q 15.24 18.597 14.834 18.597 Q 14.447 18.597 14.212 18.327 Q 13.977 18.057 13.977 17.53 Q 13.977 17.124 14.149 16.426 Q 14.32 15.728 14.707 14.753 Q 15.094 13.779 15.675 12.754 Q 16.256 11.729 17.056 10.713 L 13.66 10.713 Q 13.127 10.713 12.863 10.519 Q 12.6 10.326 12.6 9.913 Q 12.6 9.475 12.879 9.348 Q 13.158 9.221 13.66 9.221 Z" style="fill: currentcolor; paint-order: stroke; stroke: none; stroke-width: 1px; isolation: isolate;"/>
</svg>