<?xml version="1.0" encoding="utf-8"?>
<svg viewBox="0 0 24 24" fill="none" stroke-width="2" stroke="currentColor" xmlns="http://www.w3.org/2000/svg">
  <path stroke-linecap="round" stroke-linejoin="round" d="M8 7V3m8 4V3m-9 810M5 21h14a2 2 0 002-2V7a2 2 0 00-2-2H5a2 2 0 00-2 2v12a2 2 0 002 2z" style="stroke: currentcolor;"/>
  <path d="M 10.287 9.221 L 14.514 9.221 Q 15.124 9.221 15.397 9.412 Q 15.67 9.602 15.67 10.04 Q 15.67 10.307 15.349 10.745 Q 15.029 11.183 14.619 11.713 Q 14.21 12.243 13.775 13.03 Q 13.34 13.817 12.978 14.953 Q 12.826 15.455 12.762 15.785 Q 12.699 16.115 12.623 16.642 Q 12.547 17.168 12.49 17.448 Q 12.356 18.095 12.112 18.346 Q 11.867 18.597 11.461 18.597 Q 11.074 18.597 10.839 18.327 Q 10.604 18.057 10.604 17.53 Q 10.604 17.124 10.776 16.426 Q 10.947 15.728 11.334 14.753 Q 11.721 13.779 12.302 12.754 Q 12.883 11.729 13.683 10.713 L 10.287 10.713 Q 9.754 10.713 9.49 10.519 Q 9.227 10.326 9.227 9.913 Q 9.227 9.475 9.506 9.348 Q 9.785 9.221 10.287 9.221 Z" style="fill: currentcolor; paint-order: stroke; stroke: none; stroke-width: 1px; isolation: isolate;"/>
</svg>