<?xml version="1.0" encoding="utf-8"?>
<svg viewBox="0 0 24 24" fill="none" stroke-width="2" stroke="currentColor" xmlns="http://www.w3.org/2000/svg" xmlns:bx="https://boxy-svg.com">
  <path d="M 2 2 L 22 2" style="fill: currentcolor; stroke-width: 1.5px; stroke-linecap: round;"/>
  <g>
    <path d="M 21 5.421 C 21 6.206 20.364 6.842 19.579 6.842 C 18.794 6.842 18.158 6.206 18.158 5.421 C 18.158 4.636 18.794 4 19.579 4 C 20.364 4 21 4.636 21 5.421 Z" style="stroke-width: 1px; fill-rule: nonzero; stroke: none; fill: currentcolor; paint-order: fill;" bx:origin="0.5 0.5"/>
    <path d="M 17.21 5.421 C 17.21 6.206 16.574 6.842 15.789 6.842 C 15.004 6.842 14.368 6.206 14.368 5.421 C 14.368 4.636 15.004 4 15.789 4 C 16.574 4 17.21 4.636 17.21 5.421 Z" style="stroke-width: 1px; fill-rule: nonzero; stroke: none; fill: currentcolor; paint-order: fill;" bx:origin="0.5 0.5"/>
    <path d="M 13.421 5.421 C 13.421 6.206 12.785 6.842 12 6.842 C 11.215 6.842 10.579 6.206 10.579 5.421 C 10.579 4.636 11.215 4 12 4 C 12.785 4 13.421 4.636 13.421 5.421 Z" style="stroke-width: 1px; fill-rule: nonzero; stroke: none; fill: currentcolor; paint-order: fill;" bx:origin="0.5 0.5"/>
    <path d="M 13.421 9.211 C 13.421 9.996 12.785 10.632 12 10.632 C 11.215 10.632 10.579 9.996 10.579 9.211 C 10.579 8.426 11.215 7.79 12 7.79 C 12.785 7.79 13.421 8.426 13.421 9.211 Z" style="stroke-width: 1px; fill-rule: nonzero; stroke: none; fill: currentcolor; paint-order: fill;" bx:origin="0.5 0.5"/>
    <path d="M 9.632 9.211 C 9.632 9.996 8.996 10.632 8.211 10.632 C 7.426 10.632 6.79 9.996 6.79 9.211 C 6.79 8.426 7.426 7.79 8.211 7.79 C 8.996 7.79 9.632 8.426 9.632 9.211 Z" style="stroke-width: 1px; fill-rule: nonzero; stroke: none; fill: currentcolor; paint-order: fill;" bx:origin="0.5 0.5"/>
    <path d="M 5.842 9.211 C 5.842 9.996 5.206 10.632 4.421 10.632 C 3.636 10.632 3 9.996 3 9.211 C 3 8.426 3.636 7.79 4.421 7.79 C 5.206 7.79 5.842 8.426 5.842 9.211 Z" style="stroke-width: 1px; fill-rule: nonzero; stroke: none; fill: currentcolor; paint-order: fill;" bx:origin="0.5 0.5"/>
    <path d="M 13.421 13 C 13.421 13.785 12.785 14.421 12 14.421 C 11.215 14.421 10.579 13.785 10.579 13 C 10.579 12.215 11.215 11.579 12 11.579 C 12.785 11.579 13.421 12.215 13.421 13 Z" style="stroke-width: 1px; fill-rule: nonzero; stroke: none; fill: currentcolor; paint-order: fill;" bx:origin="0.5 0.5"/>
    <path d="M 13.421 16.789 C 13.421 17.574 12.785 18.21 12 18.21 C 11.215 18.21 10.579 17.574 10.579 16.789 C 10.579 16.004 11.215 15.368 12 15.368 C 12.785 15.368 13.421 16.004 13.421 16.789 Z" style="stroke-width: 1px; fill-rule: nonzero; stroke: none; fill: currentcolor; paint-order: fill;" bx:origin="0.5 0.5"/>
    <path d="M 9.632 13 C 9.632 13.785 8.996 14.421 8.211 14.421 C 7.426 14.421 6.79 13.785 6.79 13 C 6.79 12.215 7.426 11.579 8.211 11.579 C 8.996 11.579 9.632 12.215 9.632 13 Z" style="stroke-width: 1px; fill-rule: nonzero; stroke: none; fill: currentcolor; paint-order: fill;" bx:origin="0.5 0.5"/>
    <path d="M 5.842 13 C 5.842 13.785 5.206 14.421 4.421 14.421 C 3.636 14.421 3 13.785 3 13 C 3 12.215 3.636 11.579 4.421 11.579 C 5.206 11.579 5.842 12.215 5.842 13 Z" style="stroke-width: 1px; fill-rule: nonzero; stroke: none; fill: currentcolor; paint-order: fill;" bx:origin="0.5 0.5"/>
    <path d="M 5.842 16.789 C 5.842 17.574 5.206 18.21 4.421 18.21 C 3.636 18.21 3 17.574 3 16.789 C 3 16.004 3.636 15.368 4.421 15.368 C 5.206 15.368 5.842 16.004 5.842 16.789 Z" style="stroke-width: 1px; fill-rule: nonzero; stroke: none; fill: currentcolor; paint-order: fill;" bx:origin="0.5 0.5"/>
    <path d="M 5.842 20.579 C 5.842 21.364 5.206 22 4.421 22 C 3.636 22 3 21.364 3 20.579 C 3 19.794 3.636 19.158 4.421 19.158 C 5.206 19.158 5.842 19.794 5.842 20.579 Z" style="stroke-width: 1px; fill-rule: nonzero; stroke: none; fill: currentcolor; paint-order: fill;" bx:origin="0.5 0.5"/>
    <path d="M 9.644 16.832 C 9.644 17.617 9.008 18.253 8.223 18.253 C 7.438 18.253 6.802 17.617 6.802 16.832 C 6.802 16.047 7.438 15.411 8.223 15.411 C 9.008 15.411 9.644 16.047 9.644 16.832 Z" style="stroke-width: 1px; fill-rule: nonzero; stroke: none; fill: currentcolor; paint-order: fill;" bx:origin="0.5 0.5"/>
    <path d="M 9.632 20.579 C 9.632 21.364 8.996 22 8.211 22 C 7.426 22 6.79 21.364 6.79 20.579 C 6.79 19.794 7.426 19.158 8.211 19.158 C 8.996 19.158 9.632 19.794 9.632 20.579 Z" style="stroke-width: 1px; fill-rule: nonzero; stroke: none; fill: currentcolor; paint-order: fill;" bx:origin="0.5 0.5"/>
    <path d="M 17.21 16.789 C 17.21 17.574 16.574 18.21 15.789 18.21 C 15.004 18.21 14.368 17.574 14.368 16.789 C 14.368 16.004 15.004 15.368 15.789 15.368 C 16.574 15.368 17.21 16.004 17.21 16.789 Z" style="stroke-width: 1px; fill-rule: nonzero; stroke: none; fill: currentcolor; paint-order: fill;" bx:origin="0.5 0.5"/>
    <path d="M 21 16.789 C 21 17.574 20.364 18.21 19.579 18.21 C 18.794 18.21 18.158 17.574 18.158 16.789 C 18.158 16.004 18.794 15.368 19.579 15.368 C 20.364 15.368 21 16.004 21 16.789 Z" style="stroke-width: 1px; fill-rule: nonzero; stroke: none; fill: currentcolor; paint-order: fill;" bx:origin="0.5 0.5"/>
    <path d="M 17.21 13 C 17.21 13.785 16.574 14.421 15.789 14.421 C 15.004 14.421 14.368 13.785 14.368 13 C 14.368 12.215 15.004 11.579 15.789 11.579 C 16.574 11.579 17.21 12.215 17.21 13 Z" style="stroke-width: 1px; fill-rule: nonzero; stroke: none; fill: currentcolor; paint-order: fill;" bx:origin="0.5 0.5"/>
    <path d="M 17.21 9.211 C 17.21 9.996 16.574 10.632 15.789 10.632 C 15.004 10.632 14.368 9.996 14.368 9.211 C 14.368 8.426 15.004 7.79 15.789 7.79 C 16.574 7.79 17.21 8.426 17.21 9.211 Z" style="stroke-width: 1px; fill-rule: nonzero; stroke: none; fill: currentcolor; paint-order: fill;" bx:origin="0.5 0.5"/>
    <path d="M 21 13 C 21 13.785 20.364 14.421 19.579 14.421 C 18.794 14.421 18.158 13.785 18.158 13 C 18.158 12.215 18.794 11.579 19.579 11.579 C 20.364 11.579 21 12.215 21 13 Z" style="stroke-width: 1px; fill-rule: nonzero; stroke: none; fill: currentcolor; paint-order: fill;" bx:origin="0.5 0.5"/>
    <path d="M 21 9.211 C 21 9.996 20.364 10.632 19.579 10.632 C 18.794 10.632 18.158 9.996 18.158 9.211 C 18.158 8.426 18.794 7.79 19.579 7.79 C 20.364 7.79 21 8.426 21 9.211 Z" style="stroke-width: 1px; fill-rule: nonzero; stroke: none; fill: currentcolor; paint-order: fill;" bx:origin="0.5 0.5"/>
  </g>
</svg>