<svg xmlns="http://www.w3.org/2000/svg" width="1em" height="1em" viewBox="0 0 16 16"><path fill="currentColor" fill-rule="evenodd" d="M14 4.5V11h-1V4.5h-2A1.5 1.5 0 0 1 9.5 3V1H4a1 1 0 0 0-1 1v9H2V2a2 2 0 0 1 2-2h5.5L14 4.5ZM7.86 14.841a1.13 1.13 0 0 0 .401.823c.13.108.29.192.479.252c.19.061.411.091.665.091c.338 0 .624-.053.858-.158c.237-.105.416-.252.54-.44a1.17 1.17 0 0 0 .187-.656c0-.224-.045-.41-.135-.56a1.002 1.002 0 0 0-.375-.357a2.028 2.028 0 0 0-.565-.21l-.621-.144a.97.97 0 0 1-.405-.176a.37.37 0 0 1-.143-.299c0-.156.061-.284.184-.384c.125-.101.296-.152.513-.152c.143 0 .266.023.37.068a.624.624 0 0 1 .245.181a.56.56 0 0 1 .12.258h.75a1.093 1.093 0 0 0-.199-.566a1.21 1.21 0 0 0-.5-.41a1.813 1.813 0 0 0-.78-.152c-.293 0-.552.05-.777.15c-.224.099-.4.24-.527.421c-.127.182-.19.395-.19.639c0 .201.04.376.123.524c.082.149.199.27.351.367c.153.095.332.167.54.213l.618.144c.207.049.36.113.462.193a.387.387 0 0 1 .153.326a.512.512 0 0 1-.085.29a.558.558 0 0 1-.255.193c-.111.047-.25.07-.413.07c-.117 0-.224-.013-.32-.04a.837.837 0 0 1-.249-.115a.578.578 0 0 1-.255-.384h-.764Zm-3.726-2.909h.893l-1.274 2.007l1.254 1.992h-.908l-.85-1.415h-.035l-.853 1.415H1.5l1.24-2.016l-1.228-1.983h.931l.832 1.438h.036l.823-1.438Zm1.923 3.325h1.697v.674H5.266v-3.999h.791v3.325Zm7.636-3.325h.893l-1.274 2.007l1.254 1.992h-.908l-.85-1.415h-.035l-.853 1.415h-.861l1.24-2.016l-1.228-1.983h.931l.832 1.438h.036l.823-1.438Z"/></svg>